<?xml version="1.0" standalone="no"?>
<!DOCTYPE svg PUBLIC "-//W3C//DTD SVG 20010904//EN"
 "http://www.w3.org/TR/2001/REC-SVG-20010904/DTD/svg10.dtd">
<svg version="1.0" xmlns="http://www.w3.org/2000/svg"
 width="200.000000pt" height="63.000000pt" viewBox="0 0 200.000000 63.000000"
 preserveAspectRatio="xMidYMid meet">

<g transform="translate(0.000000,63.000000) scale(0.100000,-0.100000)"
fill="#000000" stroke="none">
<path d="M51 583 c24 -27 84 -92 134 -146 49 -54 95 -96 101 -95 6 2 42 37 79
78 38 41 92 101 122 133 29 31 53 62 53 67 0 6 -39 10 -95 10 l-95 0 0 -60 c0
-33 -2 -60 -4 -60 -3 0 -30 27 -62 60 l-57 60 -110 0 -110 0 44 -47z"/>
<path d="M368 324 c-156 -168 -285 -310 -286 -315 -2 -5 5 -9 15 -9 11 0 116
107 268 272 342 371 331 358 306 358 -14 0 -110 -98 -303 -306z"/>
<path d="M435 318 c-221 -240 -284 -314 -270 -317 13 -2 36 15 69 50 27 30 77
83 111 119 49 52 311 340 398 438 l20 22 -20 0 c-14 0 -111 -99 -308 -312z"/>
<path d="M575 388 c-235 -257 -234 -256 -220 -345 l6 -43 89 0 89 0 3 80 3 80
68 -80 68 -80 180 0 179 0 0 88 1 87 83 -88 82 -87 181 0 180 0 58 85 c32 47
60 85 61 85 2 0 30 -38 64 -85 l61 -85 65 0 c35 0 64 2 64 5 0 5 -233 342
-368 531 l-66 94 -157 0 -157 0 -67 -75 c-37 -41 -71 -75 -76 -75 -5 0 -9 34
-9 75 l0 75 -90 0 -90 0 0 -285 c0 -157 -2 -285 -5 -285 -10 0 -245 279 -245
291 0 3 52 64 115 135 63 71 115 132 115 137 0 4 -10 7 -22 7 -17 -1 -83 -66
-243 -242z m936 44 c39 -57 69 -109 66 -115 -8 -22 -167 -246 -179 -253 -6 -4
-26 9 -46 32 -20 21 -75 80 -124 131 -48 50 -88 95 -88 99 0 4 57 65 128 136
l127 129 23 -28 c12 -15 54 -74 93 -131z"/>
<path d="M1530 625 c0 -8 29 -51 243 -355 209 -297 191 -273 211 -268 20 4
-410 621 -436 626 -10 2 -18 1 -18 -3z"/>
<path d="M1774 605 c-16 -24 -15 -27 20 -78 59 -83 64 -89 76 -82 6 3 37 47
70 96 l61 89 -106 0 c-101 0 -105 -1 -121 -25z"/>
<path d="M388 427 c-70 -78 -186 -205 -258 -282 -96 -103 -126 -141 -114 -144
17 -3 86 63 219 209 28 30 105 114 173 186 76 83 122 139 122 153 0 11 -3 21
-7 20 -5 0 -65 -64 -135 -142z"/>
<path d="M1730 541 c0 -27 88 -153 101 -145 5 3 9 10 9 15 0 13 -73 121 -94
138 -14 12 -16 11 -16 -8z"/>
<path d="M1697 496 c-5 -13 71 -137 92 -150 5 -3 12 1 15 9 3 9 -12 41 -36 75
-49 73 -64 86 -71 66z"/>
</g>
</svg>
